<svg id="live-icon" version="1.1" xmlns="http://www.w3.org/2000/svg" xmlns:xlink="http://www.w3.org/1999/xlink" viewBox="0 0 28 22">
	<rect id="browser" x="0" y="0" width="28" height="22" fill="#f0f6fc" />
	<circle cx="3.5" cy="2.5" r="1.5" />
	<circle cx="7.5" cy="2.5" r="1.5" />
	<circle cx="11.5" cy="2.5" r="1.5" />
	<rect id="browser-screen" x="2" y="5" width="24" height="15" />
	<path id="globe" transform="translate(7 6) scale(0.7)" d="M9,0 C4.02943725,2.22044605e-16 6.66133815e-16,4.02943725 0,9 C-6.66133815e-16,13.9705627 4.02943725,18 9,18 C13.9705627,18 18,13.9705627 18,9 C18,4.02943725 13.9705627,6.66133815e-16 9,0 Z M12.46,11.95 C12.46,13.42 11.66,15.25 8.4,16.65 C8.7,12.48 5.88,12.96 5.2,11.65 C5.32585594,10.5486495 6.00438361,9.58740195 7,9.1 C5.44816932,8.83382651 4.00092548,8.14136534 2.82,7.1 C2.8697862,7.57063002 3.09899651,8.00398077 3.46,8.31 C2.67791156,8.01519945 2.00215848,7.49270996 1.52,6.81 C2.49711943,3.58500598 5.40348457,1.32806312 8.77,1.18 C7.93,2.56 7.27,5.31 8.77,6.75 C7.23,7 6.26,5 5.41,5.79 C4.28,6.85 5.74,8.3 8.83,8.87 C12.12,9.46 12.49,10.45 12.46,11.95 Z M13.8,7.95 C13.48,6.84 14.42,5.72 15.49,4.81 C16.8462909,6.76503346 17.1600342,9.26003943 16.33,11.49 C15.56,9.6 14.16,9.17 13.8,7.92 L13.8,7.95 Z" fill="#0F0"></path>
</svg>
